<svg viewBox="0 0 500 500" xml:space="preserve" xmlns="http://www.w3.org/2000/svg"><path d="M386.9 401.1H113.1C67.8 401.1 31 364.3 31 319c0-36.8 24.4-68.7 59.2-78.7 8.3-22.5 27.7-38.8 51-43.2 6.2-54.5 52.6-97 108.8-97 44.7 0 85 27.7 101.5 68.6 48.1 2.8 86.7 41.3 89.9 89.3 17.6 15.6 27.6 37.5 27.6 61.1 0 45.1-36.8 82-82.1 82zm-232.7-178c-19.1 0-35.5 13-39.9 31.7l-2 8.8-8.9 1.6c-26.1 4.7-45 27.3-45 53.7 0 30.2 24.6 54.8 54.8 54.8H387c30.2 0 54.8-24.6 54.8-54.8 0-17.1-8-33-21.9-43.5l-5.4-4.1v-7.9c0-37-30.7-67.7-68.5-67.7l-14 .7-3.1-10.3c-10.2-34.6-42.6-58.8-78.7-58.8-45.3 0-82.1 36.8-82.1 82.1v13.7h-13.9z" fill="#ffffff" class="fill-000000"></path><path d="M236.3 229h27.4v117.3h-27.4z" fill="#ffffff" class="fill-000000"></path><path d="M295.1 287.6 250 242.5l-45.1 45.1-19.3-19.4 64.4-64.4 64.4 64.4z" fill="#ffffff" class="fill-000000"></path></svg>